<?xml version="1.0" encoding="UTF-8" standalone="no"?>
<!DOCTYPE svg PUBLIC "-//W3C//DTD SVG 1.1//EN"
 "http://www.w3.org/Graphics/SVG/1.1/DTD/svg11.dtd">
<!-- Generated by graphviz version 5.0.0 (20220707.1540)
 -->
<!-- Title: GraphTitle Pages: 1 -->
<svg width="1310pt" height="435pt"
 viewBox="0.00 0.00 1310.17 435.00" xmlns="http://www.w3.org/2000/svg" xmlns:xlink="http://www.w3.org/1999/xlink">
<g id="graph0" class="graph" transform="scale(1 1) rotate(0) translate(4 431)">
<title>GraphTitle</title>
<polygon fill="white" stroke="transparent" points="-4,4 -4,-431 1306.17,-431 1306.17,4 -4,4"/>
<text text-anchor="middle" x="651.09" y="-37.8" font-family="Times New Roman,serif" font-size="14.00">Key to</text>
<text text-anchor="middle" x="651.09" y="-22.8" font-family="Times New Roman,serif" font-size="14.00"> Canadian Pratylenchus sp.</text>
<text text-anchor="middle" x="651.09" y="-7.8" font-family="Times New Roman,serif" font-size="14.00"> Qing Yu</text>
<!-- P. neglectus
 -->
<g id="node1" class="node">
<title>P. neglectus
</title>
<polygon fill="aqua" stroke="black" points="707.77,-401 676.23,-419 613.15,-419 581.61,-401 613.15,-383 676.23,-383 707.77,-401"/>
<text text-anchor="middle" x="644.69" y="-397.3" font-family="Times New Roman,serif" font-size="14.00">P. neglectus</text>
</g>
<!-- P. macrostylus
 -->
<g id="node2" class="node">
<title>P. macrostylus
</title>
<polygon fill="aqua" stroke="black" points="1027.63,-401 990.08,-419 914.98,-419 877.43,-401 914.98,-383 990.08,-383 1027.63,-401"/>
<text text-anchor="middle" x="952.53" y="-397.3" font-family="Times New Roman,serif" font-size="14.00">P. macrostylus</text>
</g>
<!-- P. flakensis
 -->
<g id="node3" class="node">
<title>P. flakensis
</title>
<polygon fill="aqua" stroke="black" points="1012.61,-347 982.57,-365 922.49,-365 892.45,-347 922.49,-329 982.57,-329 1012.61,-347"/>
<text text-anchor="middle" x="952.53" y="-343.3" font-family="Times New Roman,serif" font-size="14.00">P. flakensis</text>
</g>
<!-- P. sensillatus
 -->
<g id="node4" class="node">
<title>P. sensillatus
</title>
<polygon fill="aqua" stroke="black" points="711.28,-125 677.98,-143 611.39,-143 578.1,-125 611.39,-107 677.98,-107 711.28,-125"/>
<text text-anchor="middle" x="644.69" y="-121.3" font-family="Times New Roman,serif" font-size="14.00">P. sensillatus</text>
</g>
<!-- P. thornei
 -->
<g id="node5" class="node">
<title>P. thornei
</title>
<polygon fill="aqua" stroke="black" points="697.76,-71 671.22,-89 618.15,-89 591.62,-71 618.15,-53 671.22,-53 697.76,-71"/>
<text text-anchor="middle" x="644.69" y="-67.3" font-family="Times New Roman,serif" font-size="14.00">P. thornei</text>
</g>
<!-- P. crenatus
 -->
<g id="node6" class="node">
<title>P. crenatus
</title>
<polygon fill="aqua" stroke="black" points="1011.61,-293 982.07,-311 922.99,-311 893.45,-293 922.99,-275 982.07,-275 1011.61,-293"/>
<text text-anchor="middle" x="952.53" y="-289.3" font-family="Times New Roman,serif" font-size="14.00">P. crenatus</text>
</g>
<!-- P. fallax
 -->
<g id="node7" class="node">
<title>P. fallax
</title>
<polygon fill="aqua" stroke="black" points="999.09,-239 975.81,-257 929.25,-257 905.97,-239 929.25,-221 975.81,-221 999.09,-239"/>
<text text-anchor="middle" x="952.53" y="-235.3" font-family="Times New Roman,serif" font-size="14.00">P. fallax</text>
</g>
<!-- P. pratensis
 -->
<g id="node8" class="node">
<title>P. pratensis
</title>
<polygon fill="aqua" stroke="black" points="1014.11,-172 983.32,-190 921.74,-190 890.95,-172 921.74,-154 983.32,-154 1014.11,-172"/>
<text text-anchor="middle" x="952.53" y="-168.3" font-family="Times New Roman,serif" font-size="14.00">P. pratensis</text>
</g>
<!-- P. zeae
 -->
<g id="node9" class="node">
<title>P. zeae
</title>
<polygon fill="aqua" stroke="black" points="1271.43,-145 1250.4,-163 1208.35,-163 1187.32,-145 1208.35,-127 1250.4,-127 1271.43,-145"/>
<text text-anchor="middle" x="1229.38" y="-141.3" font-family="Times New Roman,serif" font-size="14.00">P. zeae</text>
</g>
<!-- P. hexincinsus
 -->
<g id="node10" class="node">
<title>P. hexincinsus
</title>
<polygon fill="aqua" stroke="black" points="1301.97,-91 1265.67,-109 1193.08,-109 1156.78,-91 1193.08,-73 1265.67,-73 1301.97,-91"/>
<text text-anchor="middle" x="1229.38" y="-87.3" font-family="Times New Roman,serif" font-size="14.00">P. hexincinsus</text>
</g>
<!-- Start -->
<g id="node11" class="node">
<title>Start</title>
<ellipse fill="none" stroke="black" cx="27.95" cy="-207" rx="27.9" ry="18"/>
<text text-anchor="middle" x="27.95" y="-203.3" font-family="Times New Roman,serif" font-size="14.00">Start</text>
</g>
<!-- 001 -->
<g id="node12" class="node">
<title>001</title>
<ellipse fill="none" stroke="black" cx="173.9" cy="-207" rx="27" ry="18"/>
<text text-anchor="middle" x="173.9" y="-203.3" font-family="Times New Roman,serif" font-size="14.00">001</text>
</g>
<!-- Start&#45;&gt;001 -->
<g id="edge1" class="edge">
<title>Start&#45;&gt;001</title>
<path fill="none" stroke="black" d="M56.02,-207C78.68,-207 111.23,-207 136.23,-207"/>
<polygon fill="black" stroke="black" points="136.43,-210.5 146.43,-207 136.43,-203.5 136.43,-210.5"/>
<text text-anchor="middle" x="101.4" y="-210.8" font-family="Times New Roman,serif" font-size="14.00">Specimen</text>
</g>
<!-- 002 -->
<g id="node13" class="node">
<title>002</title>
<ellipse fill="none" stroke="black" cx="384.9" cy="-347" rx="27" ry="18"/>
<text text-anchor="middle" x="384.9" y="-343.3" font-family="Times New Roman,serif" font-size="14.00">002</text>
</g>
<!-- 001&#45;&gt;002 -->
<g id="edge2" class="edge">
<title>001&#45;&gt;002</title>
<path fill="none" stroke="black" d="M191.77,-220.59C199.85,-226.96 209.75,-234.54 218.9,-241 265.68,-274.01 322.21,-309.4 355.49,-329.79"/>
<polygon fill="black" stroke="black" points="353.87,-332.91 364.23,-335.13 357.52,-326.93 353.87,-332.91"/>
<text text-anchor="middle" x="279.4" y="-337.8" font-family="Times New Roman,serif" font-size="14.00">Lip region composed</text>
<text text-anchor="middle" x="279.4" y="-322.8" font-family="Times New Roman,serif" font-size="14.00">of two annules</text>
</g>
<!-- 003 -->
<g id="node14" class="node">
<title>003</title>
<ellipse fill="none" stroke="black" cx="384.9" cy="-207" rx="27" ry="18"/>
<text text-anchor="middle" x="384.9" y="-203.3" font-family="Times New Roman,serif" font-size="14.00">003</text>
</g>
<!-- 001&#45;&gt;003 -->
<g id="edge3" class="edge">
<title>001&#45;&gt;003</title>
<path fill="none" stroke="black" d="M200.94,-207C237.96,-207 305.95,-207 347.8,-207"/>
<polygon fill="black" stroke="black" points="347.85,-210.5 357.85,-207 347.85,-203.5 347.85,-210.5"/>
<text text-anchor="middle" x="279.4" y="-225.8" font-family="Times New Roman,serif" font-size="14.00">Lip region composed</text>
<text text-anchor="middle" x="279.4" y="-210.8" font-family="Times New Roman,serif" font-size="14.00">of three annules</text>
</g>
<!-- 005 -->
<g id="node15" class="node">
<title>005</title>
<ellipse fill="none" stroke="black" cx="384.9" cy="-125" rx="27" ry="18"/>
<text text-anchor="middle" x="384.9" y="-121.3" font-family="Times New Roman,serif" font-size="14.00">005</text>
</g>
<!-- 001&#45;&gt;005 -->
<g id="edge4" class="edge">
<title>001&#45;&gt;005</title>
<path fill="none" stroke="black" d="M190.62,-192.51C198.6,-185.79 208.74,-178.16 218.9,-173 260.95,-151.61 314.01,-138.33 348.43,-131.3"/>
<polygon fill="black" stroke="black" points="349.35,-134.69 358.48,-129.32 347.99,-127.82 349.35,-134.69"/>
<text text-anchor="middle" x="279.4" y="-191.8" font-family="Times New Roman,serif" font-size="14.00">Lip region composed</text>
<text text-anchor="middle" x="279.4" y="-176.8" font-family="Times New Roman,serif" font-size="14.00">of four annules</text>
</g>
<!-- 002&#45;&gt;P. neglectus
 -->
<g id="edge6" class="edge">
<title>002&#45;&gt;P. neglectus
</title>
<path fill="none" stroke="black" d="M401.39,-361.4C409.32,-367.9 419.49,-375.01 429.9,-379 476.19,-396.72 532.01,-401.98 575,-402.93"/>
<polygon fill="black" stroke="black" points="575.03,-406.43 585.08,-403.08 575.14,-399.43 575.03,-406.43"/>
<text text-anchor="middle" x="494.9" y="-405.8" font-family="Times New Roman,serif" font-size="14.00">Spermatheca empty</text>
</g>
<!-- 004 -->
<g id="node16" class="node">
<title>004</title>
<ellipse fill="none" stroke="black" cx="644.69" cy="-347" rx="27" ry="18"/>
<text text-anchor="middle" x="644.69" y="-343.3" font-family="Times New Roman,serif" font-size="14.00">004</text>
</g>
<!-- 002&#45;&gt;004 -->
<g id="edge5" class="edge">
<title>002&#45;&gt;004</title>
<path fill="none" stroke="black" d="M412.03,-347C458.26,-347 554.52,-347 607.24,-347"/>
<polygon fill="black" stroke="black" points="607.48,-350.5 617.48,-347 607.48,-343.5 607.48,-350.5"/>
<text text-anchor="middle" x="494.9" y="-365.8" font-family="Times New Roman,serif" font-size="14.00">Spermatheca filled with</text>
<text text-anchor="middle" x="494.9" y="-350.8" font-family="Times New Roman,serif" font-size="14.00">sperm</text>
</g>
<!-- 006 -->
<g id="node17" class="node">
<title>006</title>
<ellipse fill="none" stroke="black" cx="644.69" cy="-240" rx="27" ry="18"/>
<text text-anchor="middle" x="644.69" y="-236.3" font-family="Times New Roman,serif" font-size="14.00">006</text>
</g>
<!-- 003&#45;&gt;006 -->
<g id="edge7" class="edge">
<title>003&#45;&gt;006</title>
<path fill="none" stroke="black" d="M411.56,-210.28C457.78,-216.2 555.14,-228.67 607.9,-235.42"/>
<polygon fill="black" stroke="black" points="607.77,-238.93 618.13,-236.73 608.66,-231.99 607.77,-238.93"/>
<text text-anchor="middle" x="494.9" y="-231.8" font-family="Times New Roman,serif" font-size="14.00">Tail crenated</text>
</g>
<!-- 007 -->
<g id="node18" class="node">
<title>007</title>
<ellipse fill="none" stroke="black" cx="644.69" cy="-179" rx="27" ry="18"/>
<text text-anchor="middle" x="644.69" y="-175.3" font-family="Times New Roman,serif" font-size="14.00">007</text>
</g>
<!-- 003&#45;&gt;007 -->
<g id="edge8" class="edge">
<title>003&#45;&gt;007</title>
<path fill="none" stroke="black" d="M408.41,-198.03C415.21,-195.68 422.77,-193.4 429.9,-192 491.28,-179.9 564.32,-178.09 607.18,-178.27"/>
<polygon fill="black" stroke="black" points="607.38,-181.77 617.4,-178.35 607.43,-174.77 607.38,-181.77"/>
<text text-anchor="middle" x="494.9" y="-195.8" font-family="Times New Roman,serif" font-size="14.00">Tail not crenated</text>
</g>
<!-- 005&#45;&gt;P. sensillatus
 -->
<g id="edge11" class="edge">
<title>005&#45;&gt;P. sensillatus
</title>
<path fill="none" stroke="black" d="M412.03,-125C448.21,-125 515.05,-125 567.67,-125"/>
<polygon fill="black" stroke="black" points="567.99,-128.5 577.99,-125 567.99,-121.5 567.99,-128.5"/>
<text text-anchor="middle" x="494.9" y="-143.8" font-family="Times New Roman,serif" font-size="14.00">Vulva to anus</text>
<text text-anchor="middle" x="494.9" y="-128.8" font-family="Times New Roman,serif" font-size="14.00">distance &gt;95 μm</text>
</g>
<!-- 005&#45;&gt;P. thornei
 -->
<g id="edge12" class="edge">
<title>005&#45;&gt;P. thornei
</title>
<path fill="none" stroke="black" d="M400.83,-110.01C408.78,-102.99 419.12,-95.25 429.9,-91 479.82,-71.31 541.2,-67.44 585.37,-67.83"/>
<polygon fill="black" stroke="black" points="585.59,-71.33 595.64,-68 585.7,-64.33 585.59,-71.33"/>
<text text-anchor="middle" x="494.9" y="-109.8" font-family="Times New Roman,serif" font-size="14.00">Vulva to anus</text>
<text text-anchor="middle" x="494.9" y="-94.8" font-family="Times New Roman,serif" font-size="14.00">distance ≤95 μm</text>
</g>
<!-- 004&#45;&gt;P. macrostylus
 -->
<g id="edge9" class="edge">
<title>004&#45;&gt;P. macrostylus
</title>
<path fill="none" stroke="black" d="M667.24,-357.06C683.87,-364.37 707.66,-373.85 729.48,-379 775.91,-389.96 829.04,-395.46 871.69,-398.23"/>
<polygon fill="black" stroke="black" points="871.54,-401.72 881.74,-398.84 871.97,-394.74 871.54,-401.72"/>
<text text-anchor="middle" x="794.48" y="-415.8" font-family="Times New Roman,serif" font-size="14.00">Stylet length &gt;24</text>
<text text-anchor="middle" x="794.48" y="-400.8" font-family="Times New Roman,serif" font-size="14.00">μm</text>
</g>
<!-- 004&#45;&gt;P. flakensis
 -->
<g id="edge10" class="edge">
<title>004&#45;&gt;P. flakensis
</title>
<path fill="none" stroke="black" d="M671.76,-347C717.93,-347 815.47,-347 882.26,-347"/>
<polygon fill="black" stroke="black" points="882.29,-350.5 892.29,-347 882.29,-343.5 882.29,-350.5"/>
<text text-anchor="middle" x="794.48" y="-365.8" font-family="Times New Roman,serif" font-size="14.00">Stylet length &lt;24</text>
<text text-anchor="middle" x="794.48" y="-350.8" font-family="Times New Roman,serif" font-size="14.00">μm</text>
</g>
<!-- 006&#45;&gt;P. crenatus
 -->
<g id="edge13" class="edge">
<title>006&#45;&gt;P. crenatus
</title>
<path fill="none" stroke="black" d="M667.62,-249.88C684.25,-256.93 707.87,-266.02 729.48,-271 781.14,-282.91 841.02,-288.37 885.57,-290.88"/>
<polygon fill="black" stroke="black" points="885.52,-294.38 895.69,-291.41 885.88,-287.39 885.52,-294.38"/>
<text text-anchor="middle" x="794.48" y="-291.8" font-family="Times New Roman,serif" font-size="14.00">Spermatheca empty</text>
</g>
<!-- 006&#45;&gt;P. fallax
 -->
<g id="edge14" class="edge">
<title>006&#45;&gt;P. fallax
</title>
<path fill="none" stroke="black" d="M671.76,-239.91C721.13,-239.75 829.22,-239.4 895.66,-239.18"/>
<polygon fill="black" stroke="black" points="895.96,-242.68 905.95,-239.15 895.94,-235.68 895.96,-242.68"/>
<text text-anchor="middle" x="794.48" y="-257.8" font-family="Times New Roman,serif" font-size="14.00">Spermatheca filled with</text>
<text text-anchor="middle" x="794.48" y="-242.8" font-family="Times New Roman,serif" font-size="14.00">sperm</text>
</g>
<!-- 007&#45;&gt;P. pratensis
 -->
<g id="edge15" class="edge">
<title>007&#45;&gt;P. pratensis
</title>
<path fill="none" stroke="black" d="M671.76,-178.4C718.14,-177.34 816.34,-175.09 883.15,-173.57"/>
<polygon fill="black" stroke="black" points="883.26,-177.06 893.18,-173.34 883.1,-170.07 883.26,-177.06"/>
<text text-anchor="middle" x="794.48" y="-210.8" font-family="Times New Roman,serif" font-size="14.00">Lateral field with</text>
<text text-anchor="middle" x="794.48" y="-195.8" font-family="Times New Roman,serif" font-size="14.00">four lines with</text>
<text text-anchor="middle" x="794.48" y="-180.8" font-family="Times New Roman,serif" font-size="14.00">inner ones interrupted</text>
</g>
<!-- 008 -->
<g id="node19" class="node">
<title>008</title>
<ellipse fill="none" stroke="black" cx="952.53" cy="-118" rx="27" ry="18"/>
<text text-anchor="middle" x="952.53" y="-114.3" font-family="Times New Roman,serif" font-size="14.00">008</text>
</g>
<!-- 007&#45;&gt;008 -->
<g id="edge16" class="edge">
<title>007&#45;&gt;008</title>
<path fill="none" stroke="black" d="M668.62,-170.62C681.45,-165.68 697.6,-159.03 711.48,-152 719.85,-147.76 720.6,-144 729.48,-141 792.37,-119.75 870.5,-116.64 915.32,-116.91"/>
<polygon fill="black" stroke="black" points="915.4,-120.41 925.44,-117.03 915.48,-113.41 915.4,-120.41"/>
<text text-anchor="middle" x="794.48" y="-159.8" font-family="Times New Roman,serif" font-size="14.00">Lateral field of</text>
<text text-anchor="middle" x="794.48" y="-144.8" font-family="Times New Roman,serif" font-size="14.00">lines not interrupted</text>
</g>
<!-- 008&#45;&gt;P. zeae
 -->
<g id="edge17" class="edge">
<title>008&#45;&gt;P. zeae
</title>
<path fill="none" stroke="black" d="M979.39,-120.54C1025.53,-125.07 1122.67,-134.62 1181.04,-140.35"/>
<polygon fill="black" stroke="black" points="1180.82,-143.85 1191.12,-141.34 1181.51,-136.88 1180.82,-143.85"/>
<text text-anchor="middle" x="1092.08" y="-154.8" font-family="Times New Roman,serif" font-size="14.00">Lateral field with</text>
<text text-anchor="middle" x="1092.08" y="-139.8" font-family="Times New Roman,serif" font-size="14.00">four lines</text>
</g>
<!-- 008&#45;&gt;P. hexincinsus
 -->
<g id="edge18" class="edge">
<title>008&#45;&gt;P. hexincinsus
</title>
<path fill="none" stroke="black" d="M977.06,-110.2C995.47,-104.51 1021.85,-97.24 1045.58,-94 1080.35,-89.25 1119.18,-88.04 1152.08,-88.21"/>
<polygon fill="black" stroke="black" points="1152.06,-91.71 1162.09,-88.3 1152.13,-84.71 1152.06,-91.71"/>
<text text-anchor="middle" x="1092.08" y="-112.8" font-family="Times New Roman,serif" font-size="14.00">Lateral field with</text>
<text text-anchor="middle" x="1092.08" y="-97.8" font-family="Times New Roman,serif" font-size="14.00">six lines</text>
</g>
</g>
</svg>
