<?xml version="1.0" encoding="UTF-8" standalone="no"?>
<!DOCTYPE svg PUBLIC "-//W3C//DTD SVG 1.1//EN"
 "http://www.w3.org/Graphics/SVG/1.1/DTD/svg11.dtd">
<!-- Generated by graphviz version 5.0.0 (20220707.1540)
 -->
<!-- Title: GraphTitle Pages: 1 -->
<svg width="4512pt" height="595pt"
 viewBox="0.00 0.00 4511.98 595.00" xmlns="http://www.w3.org/2000/svg" xmlns:xlink="http://www.w3.org/1999/xlink">
<g id="graph0" class="graph" transform="scale(1 1) rotate(0) translate(4 591)">
<title>GraphTitle</title>
<polygon fill="white" stroke="transparent" points="-4,4 -4,-591 4507.98,-591 4507.98,4 -4,4"/>
<text text-anchor="middle" x="2251.99" y="-52.8" font-family="Times New Roman,serif" font-size="14.00">Key to Families of the</text>
<text text-anchor="middle" x="2251.99" y="-37.8" font-family="Times New Roman,serif" font-size="14.00"> Superfamily Criconematoidea</text>
<text text-anchor="middle" x="2251.99" y="-22.8" font-family="Times New Roman,serif" font-size="14.00"> Andrássy, </text>
<text text-anchor="middle" x="2251.99" y="-7.8" font-family="Times New Roman,serif" font-size="14.00"> 2007</text>
<!-- s1 -->
<g id="node1" class="node">
<title>s1</title>
<polygon fill="aqua" stroke="black" points="199,-298 185.5,-316 158.5,-316 145,-298 158.5,-280 185.5,-280 199,-298"/>
<text text-anchor="middle" x="172" y="-294.3" font-family="Times New Roman,serif" font-size="14.00">s1</text>
</g>
<!-- s2 -->
<g id="node2" class="node">
<title>s2</title>
<polygon fill="aqua" stroke="black" points="457,-347 443.5,-365 416.5,-365 403,-347 416.5,-329 443.5,-329 457,-347"/>
<text text-anchor="middle" x="430" y="-343.3" font-family="Times New Roman,serif" font-size="14.00">s2</text>
</g>
<!-- s1&#45;&gt;s2 -->
<g id="edge2" class="edge">
<title>s1&#45;&gt;s2</title>
<path fill="none" stroke="black" d="M189.66,-310.68C197.54,-316.01 207.32,-321.72 217,-325 276.44,-345.15 350.19,-348.26 393.18,-348.06"/>
<polygon fill="black" stroke="black" points="393.47,-351.56 403.43,-347.95 393.39,-344.56 393.47,-351.56"/>
<text text-anchor="middle" x="301" y="-411.8" font-family="Times New Roman,serif" font-size="14.00">Cuticle thick, coarsely</text>
<text text-anchor="middle" x="301" y="-396.8" font-family="Times New Roman,serif" font-size="14.00">annulated, often with</text>
<text text-anchor="middle" x="301" y="-381.8" font-family="Times New Roman,serif" font-size="14.00">extensions, isthmus broad</text>
<text text-anchor="middle" x="301" y="-366.8" font-family="Times New Roman,serif" font-size="14.00">and amalgamated with</text>
<text text-anchor="middle" x="301" y="-351.8" font-family="Times New Roman,serif" font-size="14.00">basal bulb</text>
</g>
<!-- s3 -->
<g id="node3" class="node">
<title>s3</title>
<polygon fill="aqua" stroke="black" points="457,-249 443.5,-267 416.5,-267 403,-249 416.5,-231 443.5,-231 457,-249"/>
<text text-anchor="middle" x="430" y="-245.3" font-family="Times New Roman,serif" font-size="14.00">s3</text>
</g>
<!-- s1&#45;&gt;s3 -->
<g id="edge3" class="edge">
<title>s1&#45;&gt;s3</title>
<path fill="none" stroke="black" d="M182.66,-279.94C190.23,-267.86 201.98,-252.97 217,-246 276.08,-218.6 354.75,-230.5 397.72,-240.47"/>
<polygon fill="black" stroke="black" points="397.04,-243.91 407.59,-242.88 398.7,-237.11 397.04,-243.91"/>
<text text-anchor="middle" x="301" y="-309.8" font-family="Times New Roman,serif" font-size="14.00">Cuticle thin, finely</text>
<text text-anchor="middle" x="301" y="-294.8" font-family="Times New Roman,serif" font-size="14.00">annulated, without extensions,</text>
<text text-anchor="middle" x="301" y="-279.8" font-family="Times New Roman,serif" font-size="14.00">isthmus slender, not</text>
<text text-anchor="middle" x="301" y="-264.8" font-family="Times New Roman,serif" font-size="14.00">amalgamated with basal</text>
<text text-anchor="middle" x="301" y="-249.8" font-family="Times New Roman,serif" font-size="14.00">bulb</text>
</g>
<!-- Criconematidae -->
<g id="node4" class="node">
<title>Criconematidae</title>
<polygon fill="aqua" stroke="black" points="839.16,-445 800.11,-463 722.01,-463 682.96,-445 722.01,-427 800.11,-427 839.16,-445"/>
<text text-anchor="middle" x="761.06" y="-441.3" font-family="Times New Roman,serif" font-size="14.00">Criconematidae</text>
</g>
<!-- s2&#45;&gt;Criconematidae -->
<g id="edge4" class="edge">
<title>s2&#45;&gt;Criconematidae</title>
<path fill="none" stroke="black" d="M436.1,-365.23C442.18,-383.24 454.22,-409.93 475,-423 540.97,-464.5 633.25,-463.37 694.75,-456.29"/>
<polygon fill="black" stroke="black" points="695.23,-459.76 704.72,-455.06 694.37,-452.81 695.23,-459.76"/>
<text text-anchor="middle" x="561" y="-538.8" font-family="Times New Roman,serif" font-size="14.00">Females and juveniles</text>
<text text-anchor="middle" x="561" y="-523.8" font-family="Times New Roman,serif" font-size="14.00">cigar&#45;shaped; cuticular annules</text>
<text text-anchor="middle" x="561" y="-508.8" font-family="Times New Roman,serif" font-size="14.00">retrorse, often with</text>
<text text-anchor="middle" x="561" y="-493.8" font-family="Times New Roman,serif" font-size="14.00">extensions; male tail</text>
<text text-anchor="middle" x="561" y="-478.8" font-family="Times New Roman,serif" font-size="14.00">short, bursa small</text>
<text text-anchor="middle" x="561" y="-463.8" font-family="Times New Roman,serif" font-size="14.00">or absent</text>
</g>
<!-- Hemicycliophoridae -->
<g id="node5" class="node">
<title>Hemicycliophoridae</title>
<polygon fill="aqua" stroke="black" points="857.19,-347 809.13,-365 713,-365 664.94,-347 713,-329 809.13,-329 857.19,-347"/>
<text text-anchor="middle" x="761.06" y="-343.3" font-family="Times New Roman,serif" font-size="14.00">Hemicycliophoridae</text>
</g>
<!-- s2&#45;&gt;Hemicycliophoridae -->
<g id="edge5" class="edge">
<title>s2&#45;&gt;Hemicycliophoridae</title>
<path fill="none" stroke="black" d="M457.1,-347C499.4,-347 585.24,-347 654.77,-347"/>
<polygon fill="black" stroke="black" points="654.91,-350.5 664.91,-347 654.91,-343.5 654.91,-350.5"/>
<text text-anchor="middle" x="561" y="-410.8" font-family="Times New Roman,serif" font-size="14.00">Females and juveniles</text>
<text text-anchor="middle" x="561" y="-395.8" font-family="Times New Roman,serif" font-size="14.00">slender, vermiform; cuticular</text>
<text text-anchor="middle" x="561" y="-380.8" font-family="Times New Roman,serif" font-size="14.00">annules rounded; male</text>
<text text-anchor="middle" x="561" y="-365.8" font-family="Times New Roman,serif" font-size="14.00">tail long, bursa</text>
<text text-anchor="middle" x="561" y="-350.8" font-family="Times New Roman,serif" font-size="14.00">large</text>
</g>
<!-- Paratylenchidae -->
<g id="node6" class="node">
<title>Paratylenchidae</title>
<polygon fill="aqua" stroke="black" points="839.16,-249 800.11,-267 722.01,-267 682.96,-249 722.01,-231 800.11,-231 839.16,-249"/>
<text text-anchor="middle" x="761.06" y="-245.3" font-family="Times New Roman,serif" font-size="14.00">Paratylenchidae</text>
</g>
<!-- s3&#45;&gt;Paratylenchidae -->
<g id="edge6" class="edge">
<title>s3&#45;&gt;Paratylenchidae</title>
<path fill="none" stroke="black" d="M457.1,-249C503.1,-249 600.56,-249 672.58,-249"/>
<polygon fill="black" stroke="black" points="673.01,-252.5 683.01,-249 673.01,-245.5 673.01,-252.5"/>
<text text-anchor="middle" x="561" y="-312.8" font-family="Times New Roman,serif" font-size="14.00">Mature female vermiform</text>
<text text-anchor="middle" x="561" y="-297.8" font-family="Times New Roman,serif" font-size="14.00">to elongate&#45;obese; procorpus</text>
<text text-anchor="middle" x="561" y="-282.8" font-family="Times New Roman,serif" font-size="14.00">of esophagus wide;</text>
<text text-anchor="middle" x="561" y="-267.8" font-family="Times New Roman,serif" font-size="14.00">stylet may be</text>
<text text-anchor="middle" x="561" y="-252.8" font-family="Times New Roman,serif" font-size="14.00">long</text>
</g>
<!-- s4 -->
<g id="node7" class="node">
<title>s4</title>
<polygon fill="aqua" stroke="black" points="788.06,-166 774.56,-184 747.56,-184 734.06,-166 747.56,-148 774.56,-148 788.06,-166"/>
<text text-anchor="middle" x="761.06" y="-162.3" font-family="Times New Roman,serif" font-size="14.00">s4</text>
</g>
<!-- s3&#45;&gt;s4 -->
<g id="edge7" class="edge">
<title>s3&#45;&gt;s4</title>
<path fill="none" stroke="black" d="M438.07,-230.91C445.02,-215.8 457.19,-195.14 475,-185 555.99,-138.89 671.65,-150.23 727.46,-159.53"/>
<polygon fill="black" stroke="black" points="727.03,-163.01 737.48,-161.28 728.24,-156.11 727.03,-163.01"/>
<text text-anchor="middle" x="561" y="-233.8" font-family="Times New Roman,serif" font-size="14.00">Mature female saccate</text>
<text text-anchor="middle" x="561" y="-218.8" font-family="Times New Roman,serif" font-size="14.00">or spherical; procorpus</text>
<text text-anchor="middle" x="561" y="-203.8" font-family="Times New Roman,serif" font-size="14.00">of esophagus slender;</text>
<text text-anchor="middle" x="561" y="-188.8" font-family="Times New Roman,serif" font-size="14.00">stylet short</text>
</g>
<!-- Hemicriconemoides Chitwood &amp;
Birchfield, 1957
 -->
<g id="node10" class="node">
<title>Hemicriconemoides Chitwood &amp;
Birchfield, 1957
</title>
<polygon fill="aqua" stroke="black" points="1392.92,-475 1310.49,-506.05 1145.63,-506.05 1063.19,-475 1145.63,-443.95 1310.49,-443.95 1392.92,-475"/>
<text text-anchor="middle" x="1228.06" y="-478.8" font-family="Times New Roman,serif" font-size="14.00">Hemicriconemoides Chitwood &amp;</text>
<text text-anchor="middle" x="1228.06" y="-463.8" font-family="Times New Roman,serif" font-size="14.00">Birchfield, 1957</text>
</g>
<!-- Criconematidae&#45;&gt;Hemicriconemoides Chitwood &amp;
Birchfield, 1957
 -->
<g id="edge10" class="edge">
<title>Criconematidae&#45;&gt;Hemicriconemoides Chitwood &amp;
Birchfield, 1957
</title>
<path fill="none" stroke="black" d="M830.17,-449.39C894.65,-453.55 993.67,-459.94 1076.67,-465.3"/>
<polygon fill="black" stroke="black" points="1076.5,-468.79 1086.71,-465.95 1076.95,-461.81 1076.5,-468.79"/>
<text text-anchor="middle" x="960.13" y="-495.8" font-family="Times New Roman,serif" font-size="14.00">Female with a</text>
<text text-anchor="middle" x="960.13" y="-480.8" font-family="Times New Roman,serif" font-size="14.00">cuticular sheath of</text>
<text text-anchor="middle" x="960.13" y="-465.8" font-family="Times New Roman,serif" font-size="14.00">rounded annules</text>
</g>
<!-- 002 -->
<g id="node28" class="node">
<title>002</title>
<ellipse fill="none" stroke="black" cx="1228.06" cy="-408" rx="27" ry="18"/>
<text text-anchor="middle" x="1228.06" y="-404.3" font-family="Times New Roman,serif" font-size="14.00">002</text>
</g>
<!-- Criconematidae&#45;&gt;002 -->
<g id="edge11" class="edge">
<title>Criconematidae&#45;&gt;002</title>
<path fill="none" stroke="black" d="M810.38,-431.71C830.28,-426.81 853.65,-421.78 875.13,-419 989.46,-404.21 1126.33,-405.24 1190.48,-406.81"/>
<polygon fill="black" stroke="black" points="1190.78,-410.32 1200.87,-407.08 1190.97,-403.32 1190.78,-410.32"/>
<text text-anchor="middle" x="960.13" y="-437.8" font-family="Times New Roman,serif" font-size="14.00">Female without cuticular</text>
<text text-anchor="middle" x="960.13" y="-422.8" font-family="Times New Roman,serif" font-size="14.00">sheath</text>
</g>
<!-- Sphaeronematidae -->
<g id="node8" class="node">
<title>Sphaeronematidae</title>
<polygon fill="aqua" stroke="black" points="1317.17,-215 1272.62,-233 1183.5,-233 1138.94,-215 1183.5,-197 1272.62,-197 1317.17,-215"/>
<text text-anchor="middle" x="1228.06" y="-211.3" font-family="Times New Roman,serif" font-size="14.00">Sphaeronematidae</text>
</g>
<!-- s4&#45;&gt;Sphaeronematidae -->
<g id="edge8" class="edge">
<title>s4&#45;&gt;Sphaeronematidae</title>
<path fill="none" stroke="black" d="M783.52,-172.29C806.1,-178.64 842.79,-188.17 875.13,-193 961.25,-205.88 1060.33,-211.24 1131.37,-213.46"/>
<polygon fill="black" stroke="black" points="1131.55,-216.96 1141.65,-213.76 1131.76,-209.97 1131.55,-216.96"/>
<text text-anchor="middle" x="960.13" y="-258.8" font-family="Times New Roman,serif" font-size="14.00">Mature female spherical,</text>
<text text-anchor="middle" x="960.13" y="-243.8" font-family="Times New Roman,serif" font-size="14.00">vulva terminal; excretory</text>
<text text-anchor="middle" x="960.13" y="-228.8" font-family="Times New Roman,serif" font-size="14.00">pore in anterior</text>
<text text-anchor="middle" x="960.13" y="-213.8" font-family="Times New Roman,serif" font-size="14.00">25% of body</text>
</g>
<!-- Tylenchulidae -->
<g id="node9" class="node">
<title>Tylenchulidae</title>
<polygon fill="aqua" stroke="black" points="1298.65,-117 1263.35,-135 1192.76,-135 1157.47,-117 1192.76,-99 1263.35,-99 1298.65,-117"/>
<text text-anchor="middle" x="1228.06" y="-113.3" font-family="Times New Roman,serif" font-size="14.00">Tylenchulidae</text>
</g>
<!-- s4&#45;&gt;Tylenchulidae -->
<g id="edge9" class="edge">
<title>s4&#45;&gt;Tylenchulidae</title>
<path fill="none" stroke="black" d="M780,-154.77C801.61,-141.97 839.46,-121.81 875.13,-114 973.54,-92.45 1091.19,-99.91 1162.46,-107.94"/>
<polygon fill="black" stroke="black" points="1162.29,-111.45 1172.63,-109.13 1163.1,-104.49 1162.29,-111.45"/>
<text text-anchor="middle" x="960.13" y="-177.8" font-family="Times New Roman,serif" font-size="14.00">Mature female elongate&#45;obese;</text>
<text text-anchor="middle" x="960.13" y="-162.8" font-family="Times New Roman,serif" font-size="14.00">vulva not terminal;</text>
<text text-anchor="middle" x="960.13" y="-147.8" font-family="Times New Roman,serif" font-size="14.00">excretory pore at</text>
<text text-anchor="middle" x="960.13" y="-132.8" font-family="Times New Roman,serif" font-size="14.00">&gt;50% of body</text>
<text text-anchor="middle" x="960.13" y="-117.8" font-family="Times New Roman,serif" font-size="14.00">length</text>
</g>
<!-- Blandicephalonema Mehta &amp;
Raski, 1971
 -->
<g id="node11" class="node">
<title>Blandicephalonema Mehta &amp;
Raski, 1971
</title>
<polygon fill="aqua" stroke="black" points="2109.5,-532 2036.91,-563.05 1891.74,-563.05 1819.15,-532 1891.74,-500.95 2036.91,-500.95 2109.5,-532"/>
<text text-anchor="middle" x="1964.33" y="-535.8" font-family="Times New Roman,serif" font-size="14.00">Blandicephalonema Mehta &amp;</text>
<text text-anchor="middle" x="1964.33" y="-520.8" font-family="Times New Roman,serif" font-size="14.00">Raski, 1971</text>
</g>
<!-- Crossonema Mehta &amp;
Raski, 1971
 -->
<g id="node12" class="node">
<title>Crossonema Mehta &amp;
Raski, 1971
</title>
<polygon fill="aqua" stroke="black" points="2547.63,-533 2490.57,-564.05 2376.45,-564.05 2319.39,-533 2376.45,-501.95 2490.57,-501.95 2547.63,-533"/>
<text text-anchor="middle" x="2433.51" y="-536.8" font-family="Times New Roman,serif" font-size="14.00">Crossonema Mehta &amp;</text>
<text text-anchor="middle" x="2433.51" y="-521.8" font-family="Times New Roman,serif" font-size="14.00">Raski, 1971</text>
</g>
<!-- Croserinema Khan, Chawla
&amp; Sala, 1976
 -->
<g id="node13" class="node">
<title>Croserinema Khan, Chawla
&amp; Sala, 1976
</title>
<polygon fill="aqua" stroke="black" points="3036.48,-516 2967.5,-547.05 2829.52,-547.05 2760.53,-516 2829.52,-484.95 2967.5,-484.95 3036.48,-516"/>
<text text-anchor="middle" x="2898.51" y="-519.8" font-family="Times New Roman,serif" font-size="14.00">Croserinema Khan, Chawla</text>
<text text-anchor="middle" x="2898.51" y="-504.8" font-family="Times New Roman,serif" font-size="14.00">&amp; Sala, 1976</text>
</g>
<!-- Paterocephalonema Mehta &amp;
Raski, 1971
 -->
<g id="node14" class="node">
<title>Paterocephalonema Mehta &amp;
Raski, 1971
</title>
<polygon fill="aqua" stroke="black" points="3581.08,-495 3507.93,-526.05 3361.62,-526.05 3288.47,-495 3361.62,-463.95 3507.93,-463.95 3581.08,-495"/>
<text text-anchor="middle" x="3434.78" y="-498.8" font-family="Times New Roman,serif" font-size="14.00">Paterocephalonema Mehta &amp;</text>
<text text-anchor="middle" x="3434.78" y="-483.8" font-family="Times New Roman,serif" font-size="14.00">Raski, 1971</text>
</g>
<!-- Bakernema Wu, 1964
 -->
<g id="node15" class="node">
<title>Bakernema Wu, 1964
</title>
<polygon fill="aqua" stroke="black" points="4066.5,-454 4015.18,-472 3912.54,-472 3861.23,-454 3912.54,-436 4015.18,-436 4066.5,-454"/>
<text text-anchor="middle" x="3963.86" y="-450.3" font-family="Times New Roman,serif" font-size="14.00">Bakernema Wu, 1964</text>
</g>
<!-- Orphreyus Siddiqi, 2000
 -->
<g id="node16" class="node">
<title>Orphreyus Siddiqi, 2000
</title>
<polygon fill="aqua" stroke="black" points="4504.06,-441 4446.23,-459 4330.58,-459 4272.76,-441 4330.58,-423 4446.23,-423 4504.06,-441"/>
<text text-anchor="middle" x="4388.41" y="-437.3" font-family="Times New Roman,serif" font-size="14.00">Orphreyus Siddiqi, 2000</text>
</g>
<!-- Ogma Southern, 1914
 -->
<g id="node17" class="node">
<title>Ogma Southern, 1914
</title>
<polygon fill="aqua" stroke="black" points="4492.54,-358 4440.47,-376 4336.34,-376 4284.27,-358 4336.34,-340 4440.47,-340 4492.54,-358"/>
<text text-anchor="middle" x="4388.41" y="-354.3" font-family="Times New Roman,serif" font-size="14.00">Ogma Southern, 1914</text>
</g>
<!-- Neolobocriconema Mehta &amp;
Raski, 1971
 -->
<g id="node18" class="node">
<title>Neolobocriconema Mehta &amp;
Raski, 1971
</title>
<polygon fill="aqua" stroke="black" points="2577.42,-382 2505.46,-413.05 2361.56,-413.05 2289.6,-382 2361.56,-350.95 2505.46,-350.95 2577.42,-382"/>
<text text-anchor="middle" x="2433.51" y="-385.8" font-family="Times New Roman,serif" font-size="14.00">Neolobocriconema Mehta &amp;</text>
<text text-anchor="middle" x="2433.51" y="-370.8" font-family="Times New Roman,serif" font-size="14.00">Raski, 1971</text>
</g>
<!-- Lobocriconema De Grisse
&amp; Loof, 1965
 -->
<g id="node19" class="node">
<title>Lobocriconema De Grisse
&amp; Loof, 1965
</title>
<polygon fill="aqua" stroke="black" points="3032.32,-341 2965.41,-372.05 2831.6,-372.05 2764.7,-341 2831.6,-309.95 2965.41,-309.95 3032.32,-341"/>
<text text-anchor="middle" x="2898.51" y="-344.8" font-family="Times New Roman,serif" font-size="14.00">Lobocriconema De Grisse</text>
<text text-anchor="middle" x="2898.51" y="-329.8" font-family="Times New Roman,serif" font-size="14.00">&amp; Loof, 1965</text>
</g>
<!-- Amphisbaenema Orton Williams,
1982
 -->
<g id="node20" class="node">
<title>Amphisbaenema Orton Williams,
1982
</title>
<polygon fill="aqua" stroke="black" points="3599.01,-350 3516.89,-381.05 3352.66,-381.05 3270.54,-350 3352.66,-318.95 3516.89,-318.95 3599.01,-350"/>
<text text-anchor="middle" x="3434.78" y="-353.8" font-family="Times New Roman,serif" font-size="14.00">Amphisbaenema Orton Williams,</text>
<text text-anchor="middle" x="3434.78" y="-338.8" font-family="Times New Roman,serif" font-size="14.00">1982</text>
</g>
<!-- Criconema Hofmänner &amp;
Menzel, 1914
 -->
<g id="node21" class="node">
<title>Criconema Hofmänner &amp;
Menzel, 1914
</title>
<polygon fill="aqua" stroke="black" points="3563.79,-270 3499.28,-301.05 3370.27,-301.05 3305.76,-270 3370.27,-238.95 3499.28,-238.95 3563.79,-270"/>
<text text-anchor="middle" x="3434.78" y="-273.8" font-family="Times New Roman,serif" font-size="14.00">Criconema Hofmänner &amp;</text>
<text text-anchor="middle" x="3434.78" y="-258.8" font-family="Times New Roman,serif" font-size="14.00">Menzel, 1914</text>
</g>
<!-- Mesocriconema Andrássy, 1965
 -->
<g id="node22" class="node">
<title>Mesocriconema Andrássy, 1965
</title>
<polygon fill="aqua" stroke="black" points="2581.2,-231 2507.36,-249 2359.66,-249 2285.82,-231 2359.66,-213 2507.36,-213 2581.2,-231"/>
<text text-anchor="middle" x="2433.51" y="-227.3" font-family="Times New Roman,serif" font-size="14.00">Mesocriconema Andrássy, 1965</text>
</g>
<!-- Discocriconemella De Grisse
&amp; Loof, 1965
 -->
<g id="node23" class="node">
<title>Discocriconemella De Grisse
&amp; Loof, 1965
</title>
<polygon fill="aqua" stroke="black" points="3044.81,-204 2971.66,-235.05 2825.36,-235.05 2752.2,-204 2825.36,-172.95 2971.66,-172.95 3044.81,-204"/>
<text text-anchor="middle" x="2898.51" y="-207.8" font-family="Times New Roman,serif" font-size="14.00">Discocriconemella De Grisse</text>
<text text-anchor="middle" x="2898.51" y="-192.8" font-family="Times New Roman,serif" font-size="14.00">&amp; Loof, 1965</text>
</g>
<!-- Xenocriconemella De Grisse
&amp; Loof, 1965
 -->
<g id="node24" class="node">
<title>Xenocriconemella De Grisse
&amp; Loof, 1965
</title>
<polygon fill="aqua" stroke="black" points="3578.68,-187 3506.73,-218.05 3362.82,-218.05 3290.87,-187 3362.82,-155.95 3506.73,-155.95 3578.68,-187"/>
<text text-anchor="middle" x="3434.78" y="-190.8" font-family="Times New Roman,serif" font-size="14.00">Xenocriconemella De Grisse</text>
<text text-anchor="middle" x="3434.78" y="-175.8" font-family="Times New Roman,serif" font-size="14.00">&amp; Loof, 1965</text>
</g>
<!-- Nothocriconemoides Loof &amp;
De Grisse, 1971
 -->
<g id="node25" class="node">
<title>Nothocriconemoides Loof &amp;
De Grisse, 1971
</title>
<polygon fill="aqua" stroke="black" points="4110.8,-154 4037.33,-185.05 3890.39,-185.05 3816.92,-154 3890.39,-122.95 4037.33,-122.95 4110.8,-154"/>
<text text-anchor="middle" x="3963.86" y="-157.8" font-family="Times New Roman,serif" font-size="14.00">Nothocriconemoides Loof &amp;</text>
<text text-anchor="middle" x="3963.86" y="-142.8" font-family="Times New Roman,serif" font-size="14.00">De Grisse, 1971</text>
</g>
<!-- Criconemoides Taylor, 1936
 -->
<g id="node26" class="node">
<title>Criconemoides Taylor, 1936
</title>
<polygon fill="aqua" stroke="black" points="4096.03,-86 4029.95,-104 3897.78,-104 3831.69,-86 3897.78,-68 4029.95,-68 4096.03,-86"/>
<text text-anchor="middle" x="3963.86" y="-82.3" font-family="Times New Roman,serif" font-size="14.00">Criconemoides Taylor, 1936</text>
</g>
<!-- 000 -->
<g id="node27" class="node">
<title>000</title>
<ellipse fill="none" stroke="black" cx="27" cy="-298" rx="27" ry="18"/>
<text text-anchor="middle" x="27" y="-294.3" font-family="Times New Roman,serif" font-size="14.00">000</text>
</g>
<!-- 000&#45;&gt;s1 -->
<g id="edge1" class="edge">
<title>000&#45;&gt;s1</title>
<path fill="none" stroke="black" d="M54.23,-298C76.8,-298 109.61,-298 134.71,-298"/>
<polygon fill="black" stroke="black" points="134.94,-301.5 144.94,-298 134.94,-294.5 134.94,-301.5"/>
<text text-anchor="middle" x="99.5" y="-301.8" font-family="Times New Roman,serif" font-size="14.00">Specimen</text>
</g>
<!-- 003 -->
<g id="node29" class="node">
<title>003</title>
<ellipse fill="none" stroke="black" cx="1620.99" cy="-464" rx="27" ry="18"/>
<text text-anchor="middle" x="1620.99" y="-460.3" font-family="Times New Roman,serif" font-size="14.00">003</text>
</g>
<!-- 002&#45;&gt;003 -->
<g id="edge12" class="edge">
<title>002&#45;&gt;003</title>
<path fill="none" stroke="black" d="M1254.71,-411.67C1322.44,-421.38 1506.23,-447.7 1584.22,-458.88"/>
<polygon fill="black" stroke="black" points="1584.1,-462.4 1594.5,-460.35 1585.1,-455.47 1584.1,-462.4"/>
<text text-anchor="middle" x="1493.49" y="-505.8" font-family="Times New Roman,serif" font-size="14.00">Cuticular annules in</text>
<text text-anchor="middle" x="1493.49" y="-490.8" font-family="Times New Roman,serif" font-size="14.00">females and juveniles</text>
<text text-anchor="middle" x="1493.49" y="-475.8" font-family="Times New Roman,serif" font-size="14.00">with scales, spines</text>
<text text-anchor="middle" x="1493.49" y="-460.8" font-family="Times New Roman,serif" font-size="14.00">or other extensions</text>
</g>
<!-- 009 -->
<g id="node30" class="node">
<title>009</title>
<ellipse fill="none" stroke="black" cx="1620.99" cy="-342" rx="27" ry="18"/>
<text text-anchor="middle" x="1620.99" y="-338.3" font-family="Times New Roman,serif" font-size="14.00">009</text>
</g>
<!-- 002&#45;&gt;009 -->
<g id="edge13" class="edge">
<title>002&#45;&gt;009</title>
<path fill="none" stroke="black" d="M1253.67,-402.27C1288.53,-394.28 1354.38,-379.69 1410.99,-370 1471.53,-359.64 1542.49,-350.83 1584.21,-345.99"/>
<polygon fill="black" stroke="black" points="1584.62,-349.47 1594.16,-344.85 1583.82,-342.51 1584.62,-349.47"/>
<text text-anchor="middle" x="1493.49" y="-418.8" font-family="Times New Roman,serif" font-size="14.00">Cuticular annules in</text>
<text text-anchor="middle" x="1493.49" y="-403.8" font-family="Times New Roman,serif" font-size="14.00">females smooth, occasionally</text>
<text text-anchor="middle" x="1493.49" y="-388.8" font-family="Times New Roman,serif" font-size="14.00">with extensions in</text>
<text text-anchor="middle" x="1493.49" y="-373.8" font-family="Times New Roman,serif" font-size="14.00">juveniles</text>
</g>
<!-- 003&#45;&gt;Blandicephalonema Mehta &amp;
Raski, 1971
 -->
<g id="edge14" class="edge">
<title>003&#45;&gt;Blandicephalonema Mehta &amp;
Raski, 1971
</title>
<path fill="none" stroke="black" d="M1632.97,-480.62C1640.83,-491.01 1652.4,-503.59 1665.99,-510 1717.23,-534.17 1779,-541.69 1832.94,-542.39"/>
<polygon fill="black" stroke="black" points="1833.24,-545.89 1843.26,-542.44 1833.28,-538.89 1833.24,-545.89"/>
<text text-anchor="middle" x="1733.49" y="-559.8" font-family="Times New Roman,serif" font-size="14.00">Cephalic region small,</text>
<text text-anchor="middle" x="1733.49" y="-544.8" font-family="Times New Roman,serif" font-size="14.00">knob&#45;like</text>
</g>
<!-- 004 -->
<g id="node31" class="node">
<title>004</title>
<ellipse fill="none" stroke="black" cx="1964.33" cy="-465" rx="27" ry="18"/>
<text text-anchor="middle" x="1964.33" y="-461.3" font-family="Times New Roman,serif" font-size="14.00">004</text>
</g>
<!-- 003&#45;&gt;004 -->
<g id="edge15" class="edge">
<title>003&#45;&gt;004</title>
<path fill="none" stroke="black" d="M1648.21,-464.08C1708.52,-464.25 1857.23,-464.69 1926.59,-464.89"/>
<polygon fill="black" stroke="black" points="1927.01,-468.39 1937.02,-464.92 1927.03,-461.39 1927.01,-468.39"/>
<text text-anchor="middle" x="1733.49" y="-497.8" font-family="Times New Roman,serif" font-size="14.00">Cephalic region not</text>
<text text-anchor="middle" x="1733.49" y="-482.8" font-family="Times New Roman,serif" font-size="14.00">knob&#45;like, usually with</text>
<text text-anchor="middle" x="1733.49" y="-467.8" font-family="Times New Roman,serif" font-size="14.00">two annules</text>
</g>
<!-- 010 -->
<g id="node36" class="node">
<title>010</title>
<ellipse fill="none" stroke="black" cx="1964.33" cy="-342" rx="27" ry="18"/>
<text text-anchor="middle" x="1964.33" y="-338.3" font-family="Times New Roman,serif" font-size="14.00">010</text>
</g>
<!-- 009&#45;&gt;010 -->
<g id="edge26" class="edge">
<title>009&#45;&gt;010</title>
<path fill="none" stroke="black" d="M1648.21,-342C1708.52,-342 1857.23,-342 1926.59,-342"/>
<polygon fill="black" stroke="black" points="1927.02,-345.5 1937.02,-342 1927.02,-338.5 1927.02,-345.5"/>
<text text-anchor="middle" x="1733.49" y="-420.8" font-family="Times New Roman,serif" font-size="14.00">Annules of juveniles</text>
<text text-anchor="middle" x="1733.49" y="-405.8" font-family="Times New Roman,serif" font-size="14.00">with longitudinal rows</text>
<text text-anchor="middle" x="1733.49" y="-390.8" font-family="Times New Roman,serif" font-size="14.00">of scales or</text>
<text text-anchor="middle" x="1733.49" y="-375.8" font-family="Times New Roman,serif" font-size="14.00">spines; females with</text>
<text text-anchor="middle" x="1733.49" y="-360.8" font-family="Times New Roman,serif" font-size="14.00">smmoth annules, except</text>
<text text-anchor="middle" x="1733.49" y="-345.8" font-family="Times New Roman,serif" font-size="14.00">in tail region</text>
</g>
<!-- 013 -->
<g id="node37" class="node">
<title>013</title>
<ellipse fill="none" stroke="black" cx="1964.33" cy="-231" rx="27" ry="18"/>
<text text-anchor="middle" x="1964.33" y="-227.3" font-family="Times New Roman,serif" font-size="14.00">013</text>
</g>
<!-- 009&#45;&gt;013 -->
<g id="edge27" class="edge">
<title>009&#45;&gt;013</title>
<path fill="none" stroke="black" d="M1629.15,-324.6C1636.23,-309.72 1648.54,-289 1665.99,-278 1748.35,-226.06 1868.32,-224.83 1927.53,-228.01"/>
<polygon fill="black" stroke="black" points="1927.32,-231.5 1937.52,-228.62 1927.75,-224.51 1927.32,-231.5"/>
<text text-anchor="middle" x="1733.49" y="-326.8" font-family="Times New Roman,serif" font-size="14.00">Annules of both</text>
<text text-anchor="middle" x="1733.49" y="-311.8" font-family="Times New Roman,serif" font-size="14.00">juveniles and females</text>
<text text-anchor="middle" x="1733.49" y="-296.8" font-family="Times New Roman,serif" font-size="14.00">without scales or</text>
<text text-anchor="middle" x="1733.49" y="-281.8" font-family="Times New Roman,serif" font-size="14.00">spines</text>
</g>
<!-- 004&#45;&gt;Crossonema Mehta &amp;
Raski, 1971
 -->
<g id="edge16" class="edge">
<title>004&#45;&gt;Crossonema Mehta &amp;
Raski, 1971
</title>
<path fill="none" stroke="black" d="M1991.43,-465.12C2021.64,-466.29 2072.05,-471.52 2109.66,-492 2119.88,-497.56 2117.15,-506.02 2127.66,-511 2189.79,-540.42 2267.09,-545.7 2328.31,-543.73"/>
<polygon fill="black" stroke="black" points="2328.53,-547.23 2338.38,-543.34 2328.25,-540.23 2328.53,-547.23"/>
<text text-anchor="middle" x="2197.66" y="-575.8" font-family="Times New Roman,serif" font-size="14.00">Each cuticular annule</text>
<text text-anchor="middle" x="2197.66" y="-560.8" font-family="Times New Roman,serif" font-size="14.00">with continuous fringe</text>
<text text-anchor="middle" x="2197.66" y="-545.8" font-family="Times New Roman,serif" font-size="14.00">of spines</text>
</g>
<!-- 005 -->
<g id="node32" class="node">
<title>005</title>
<ellipse fill="none" stroke="black" cx="2433.51" cy="-465" rx="27" ry="18"/>
<text text-anchor="middle" x="2433.51" y="-461.3" font-family="Times New Roman,serif" font-size="14.00">005</text>
</g>
<!-- 004&#45;&gt;005 -->
<g id="edge17" class="edge">
<title>004&#45;&gt;005</title>
<path fill="none" stroke="black" d="M1991.44,-465C2070.19,-465 2305.41,-465 2396.2,-465"/>
<polygon fill="black" stroke="black" points="2396.29,-468.5 2406.29,-465 2396.29,-461.5 2396.29,-468.5"/>
<text text-anchor="middle" x="2197.66" y="-498.8" font-family="Times New Roman,serif" font-size="14.00">Extensions of cuticular</text>
<text text-anchor="middle" x="2197.66" y="-483.8" font-family="Times New Roman,serif" font-size="14.00">annules separated, not</text>
<text text-anchor="middle" x="2197.66" y="-468.8" font-family="Times New Roman,serif" font-size="14.00">fringe&#45;like</text>
</g>
<!-- 005&#45;&gt;Croserinema Khan, Chawla
&amp; Sala, 1976
 -->
<g id="edge18" class="edge">
<title>005&#45;&gt;Croserinema Khan, Chawla
&amp; Sala, 1976
</title>
<path fill="none" stroke="black" d="M2459.53,-470.21C2491.73,-476.73 2549.47,-487.79 2599.36,-494 2653.07,-500.69 2712.51,-505.58 2764.09,-509.03"/>
<polygon fill="black" stroke="black" points="2764.09,-512.53 2774.29,-509.7 2764.55,-505.55 2764.09,-512.53"/>
<text text-anchor="middle" x="2666.86" y="-524.8" font-family="Times New Roman,serif" font-size="14.00">Cuticular extensions in</text>
<text text-anchor="middle" x="2666.86" y="-509.8" font-family="Times New Roman,serif" font-size="14.00">alternating rows</text>
</g>
<!-- 006 -->
<g id="node33" class="node">
<title>006</title>
<ellipse fill="none" stroke="black" cx="2898.51" cy="-448" rx="27" ry="18"/>
<text text-anchor="middle" x="2898.51" y="-444.3" font-family="Times New Roman,serif" font-size="14.00">006</text>
</g>
<!-- 005&#45;&gt;006 -->
<g id="edge19" class="edge">
<title>005&#45;&gt;006</title>
<path fill="none" stroke="black" d="M2460.15,-461.76C2492.53,-457.85 2549.96,-451.47 2599.36,-449 2693.58,-444.28 2804.76,-445.77 2860.99,-447.03"/>
<polygon fill="black" stroke="black" points="2861.08,-450.53 2871.16,-447.26 2861.25,-443.53 2861.08,-450.53"/>
<text text-anchor="middle" x="2666.86" y="-482.8" font-family="Times New Roman,serif" font-size="14.00">Cuticular extensions not</text>
<text text-anchor="middle" x="2666.86" y="-467.8" font-family="Times New Roman,serif" font-size="14.00">alternating, arranged in</text>
<text text-anchor="middle" x="2666.86" y="-452.8" font-family="Times New Roman,serif" font-size="14.00">longitudinal rows</text>
</g>
<!-- 006&#45;&gt;Paterocephalonema Mehta &amp;
Raski, 1971
 -->
<g id="edge20" class="edge">
<title>006&#45;&gt;Paterocephalonema Mehta &amp;
Raski, 1971
</title>
<path fill="none" stroke="black" d="M2924.85,-452.63C2956.85,-458.3 3013.65,-467.8 3062.66,-473 3137.45,-480.93 3221.04,-486.2 3289.92,-489.59"/>
<polygon fill="black" stroke="black" points="3289.82,-493.08 3299.98,-490.07 3290.16,-486.09 3289.82,-493.08"/>
<text text-anchor="middle" x="3157.66" y="-505.8" font-family="Times New Roman,serif" font-size="14.00">One large saucer&#45;shaped</text>
<text text-anchor="middle" x="3157.66" y="-490.8" font-family="Times New Roman,serif" font-size="14.00">cephalic annule</text>
</g>
<!-- 007 -->
<g id="node34" class="node">
<title>007</title>
<ellipse fill="none" stroke="black" cx="3434.78" cy="-428" rx="27" ry="18"/>
<text text-anchor="middle" x="3434.78" y="-424.3" font-family="Times New Roman,serif" font-size="14.00">007</text>
</g>
<!-- 006&#45;&gt;007 -->
<g id="edge21" class="edge">
<title>006&#45;&gt;007</title>
<path fill="none" stroke="black" d="M2925.64,-447.02C3013.25,-443.74 3296.75,-433.13 3397.68,-429.35"/>
<polygon fill="black" stroke="black" points="3397.83,-432.85 3407.7,-428.98 3397.57,-425.85 3397.83,-432.85"/>
<text text-anchor="middle" x="3157.66" y="-459.8" font-family="Times New Roman,serif" font-size="14.00">Two, sometimes three,</text>
<text text-anchor="middle" x="3157.66" y="-444.8" font-family="Times New Roman,serif" font-size="14.00">moderately&#45;sized cephalic annules</text>
</g>
<!-- 007&#45;&gt;Bakernema Wu, 1964
 -->
<g id="edge22" class="edge">
<title>007&#45;&gt;Bakernema Wu, 1964
</title>
<path fill="none" stroke="black" d="M3461.91,-429.29C3534.1,-432.85 3739.04,-442.96 3863.29,-449.09"/>
<polygon fill="black" stroke="black" points="3863.41,-452.6 3873.57,-449.6 3863.76,-445.61 3863.41,-452.6"/>
<text text-anchor="middle" x="3707.89" y="-463.8" font-family="Times New Roman,serif" font-size="14.00">Cuticular extensions transparent,</text>
<text text-anchor="middle" x="3707.89" y="-448.8" font-family="Times New Roman,serif" font-size="14.00">membranous</text>
</g>
<!-- 008 -->
<g id="node35" class="node">
<title>008</title>
<ellipse fill="none" stroke="black" cx="3963.86" cy="-400" rx="27" ry="18"/>
<text text-anchor="middle" x="3963.86" y="-396.3" font-family="Times New Roman,serif" font-size="14.00">008</text>
</g>
<!-- 007&#45;&gt;008 -->
<g id="edge23" class="edge">
<title>007&#45;&gt;008</title>
<path fill="none" stroke="black" d="M3461.16,-423.45C3496.1,-417.42 3561.02,-407.08 3616.89,-403 3729.59,-394.77 3863.47,-397.01 3926.56,-398.78"/>
<polygon fill="black" stroke="black" points="3926.68,-402.29 3936.78,-399.08 3926.88,-395.29 3926.68,-402.29"/>
<text text-anchor="middle" x="3707.89" y="-421.8" font-family="Times New Roman,serif" font-size="14.00">Cuticular extensions not</text>
<text text-anchor="middle" x="3707.89" y="-406.8" font-family="Times New Roman,serif" font-size="14.00">membranous</text>
</g>
<!-- 008&#45;&gt;Orphreyus Siddiqi, 2000
 -->
<g id="edge24" class="edge">
<title>008&#45;&gt;Orphreyus Siddiqi, 2000
</title>
<path fill="none" stroke="black" d="M3990.68,-403.24C4022.96,-407.23 4079.93,-414.09 4128.83,-419 4180.41,-424.18 4237.86,-429.15 4285.49,-433.05"/>
<polygon fill="black" stroke="black" points="4285.24,-436.54 4295.5,-433.87 4285.81,-429.56 4285.24,-436.54"/>
<text text-anchor="middle" x="4191.83" y="-478.8" font-family="Times New Roman,serif" font-size="14.00">Shape and size</text>
<text text-anchor="middle" x="4191.83" y="-463.8" font-family="Times New Roman,serif" font-size="14.00">of cuticular extensions</text>
<text text-anchor="middle" x="4191.83" y="-448.8" font-family="Times New Roman,serif" font-size="14.00">differ on dorsal</text>
<text text-anchor="middle" x="4191.83" y="-433.8" font-family="Times New Roman,serif" font-size="14.00">and ventral sides</text>
</g>
<!-- 008&#45;&gt;Ogma Southern, 1914
 -->
<g id="edge25" class="edge">
<title>008&#45;&gt;Ogma Southern, 1914
</title>
<path fill="none" stroke="black" d="M3987.81,-391.6C4019.15,-380.61 4077.34,-361.94 4128.83,-355 4184.33,-347.52 4198.83,-354.37 4254.83,-355 4263.36,-355.1 4272.2,-355.23 4281.08,-355.38"/>
<polygon fill="black" stroke="black" points="4281.04,-358.88 4291.11,-355.57 4281.17,-351.88 4281.04,-358.88"/>
<text text-anchor="middle" x="4191.83" y="-403.8" font-family="Times New Roman,serif" font-size="14.00">Shape and size</text>
<text text-anchor="middle" x="4191.83" y="-388.8" font-family="Times New Roman,serif" font-size="14.00">of cuticular extensions</text>
<text text-anchor="middle" x="4191.83" y="-373.8" font-family="Times New Roman,serif" font-size="14.00">similar on dorsal</text>
<text text-anchor="middle" x="4191.83" y="-358.8" font-family="Times New Roman,serif" font-size="14.00">and ventral sides</text>
</g>
<!-- 010&#45;&gt;Neolobocriconema Mehta &amp;
Raski, 1971
 -->
<g id="edge28" class="edge">
<title>010&#45;&gt;Neolobocriconema Mehta &amp;
Raski, 1971
</title>
<path fill="none" stroke="black" d="M1991.16,-345.17C2023.17,-349.04 2079.38,-355.58 2127.66,-360 2183.26,-365.09 2244.65,-369.71 2297.69,-373.39"/>
<polygon fill="black" stroke="black" points="2297.62,-376.89 2307.83,-374.09 2298.1,-369.91 2297.62,-376.89"/>
<text text-anchor="middle" x="2197.66" y="-418.8" font-family="Times New Roman,serif" font-size="14.00">Scales and spines</text>
<text text-anchor="middle" x="2197.66" y="-403.8" font-family="Times New Roman,serif" font-size="14.00">present on annules</text>
<text text-anchor="middle" x="2197.66" y="-388.8" font-family="Times New Roman,serif" font-size="14.00">in posterior region</text>
<text text-anchor="middle" x="2197.66" y="-373.8" font-family="Times New Roman,serif" font-size="14.00">of females</text>
</g>
<!-- 011 -->
<g id="node38" class="node">
<title>011</title>
<ellipse fill="none" stroke="black" cx="2433.51" cy="-299" rx="27" ry="18"/>
<text text-anchor="middle" x="2433.51" y="-295.3" font-family="Times New Roman,serif" font-size="14.00">011</text>
</g>
<!-- 010&#45;&gt;011 -->
<g id="edge29" class="edge">
<title>010&#45;&gt;011</title>
<path fill="none" stroke="black" d="M1988.28,-333.31C2019.34,-322.07 2076.74,-303.08 2127.66,-296 2224.15,-282.59 2339.46,-290.01 2396.66,-295.24"/>
<polygon fill="black" stroke="black" points="2396.37,-298.73 2406.65,-296.19 2397.03,-291.76 2396.37,-298.73"/>
<text text-anchor="middle" x="2197.66" y="-344.8" font-family="Times New Roman,serif" font-size="14.00">Scales and spines</text>
<text text-anchor="middle" x="2197.66" y="-329.8" font-family="Times New Roman,serif" font-size="14.00">not present on</text>
<text text-anchor="middle" x="2197.66" y="-314.8" font-family="Times New Roman,serif" font-size="14.00">annules in posterior</text>
<text text-anchor="middle" x="2197.66" y="-299.8" font-family="Times New Roman,serif" font-size="14.00">region of females</text>
</g>
<!-- 013&#45;&gt;Mesocriconema Andrássy, 1965
 -->
<g id="edge34" class="edge">
<title>013&#45;&gt;Mesocriconema Andrássy, 1965
</title>
<path fill="none" stroke="black" d="M1991.44,-231C2045.14,-231 2171.61,-231 2275.42,-231"/>
<polygon fill="black" stroke="black" points="2275.71,-234.5 2285.71,-231 2275.71,-227.5 2275.71,-234.5"/>
<text text-anchor="middle" x="2197.66" y="-264.8" font-family="Times New Roman,serif" font-size="14.00">Vulva open; cephalic</text>
<text text-anchor="middle" x="2197.66" y="-249.8" font-family="Times New Roman,serif" font-size="14.00">region with submedial</text>
<text text-anchor="middle" x="2197.66" y="-234.8" font-family="Times New Roman,serif" font-size="14.00">lobes</text>
</g>
<!-- 014 -->
<g id="node40" class="node">
<title>014</title>
<ellipse fill="none" stroke="black" cx="2433.51" cy="-163" rx="27" ry="18"/>
<text text-anchor="middle" x="2433.51" y="-159.3" font-family="Times New Roman,serif" font-size="14.00">014</text>
</g>
<!-- 013&#45;&gt;014 -->
<g id="edge35" class="edge">
<title>013&#45;&gt;014</title>
<path fill="none" stroke="black" d="M1988.04,-222.32C2019.06,-210.88 2076.67,-191.16 2127.66,-182 2223.47,-164.79 2338.63,-162.49 2396.12,-162.57"/>
<polygon fill="black" stroke="black" points="2396.15,-166.07 2406.17,-162.61 2396.18,-159.07 2396.15,-166.07"/>
<text text-anchor="middle" x="2197.66" y="-215.8" font-family="Times New Roman,serif" font-size="14.00">Vulva closed; cephalic</text>
<text text-anchor="middle" x="2197.66" y="-200.8" font-family="Times New Roman,serif" font-size="14.00">region without submedial</text>
<text text-anchor="middle" x="2197.66" y="-185.8" font-family="Times New Roman,serif" font-size="14.00">lobes</text>
</g>
<!-- 011&#45;&gt;Lobocriconema De Grisse
&amp; Loof, 1965
 -->
<g id="edge30" class="edge">
<title>011&#45;&gt;Lobocriconema De Grisse
&amp; Loof, 1965
</title>
<path fill="none" stroke="black" d="M2460.17,-302.49C2492.55,-306.81 2550,-314.19 2599.36,-319 2655.29,-324.45 2717.24,-329.23 2770.12,-332.93"/>
<polygon fill="black" stroke="black" points="2770,-336.43 2780.22,-333.63 2770.49,-329.44 2770,-336.43"/>
<text text-anchor="middle" x="2666.86" y="-348.8" font-family="Times New Roman,serif" font-size="14.00">Cephalic region with</text>
<text text-anchor="middle" x="2666.86" y="-333.8" font-family="Times New Roman,serif" font-size="14.00">submedial lobes</text>
</g>
<!-- 012 -->
<g id="node39" class="node">
<title>012</title>
<ellipse fill="none" stroke="black" cx="2898.51" cy="-274" rx="27" ry="18"/>
<text text-anchor="middle" x="2898.51" y="-270.3" font-family="Times New Roman,serif" font-size="14.00">012</text>
</g>
<!-- 011&#45;&gt;012 -->
<g id="edge31" class="edge">
<title>011&#45;&gt;012</title>
<path fill="none" stroke="black" d="M2460.49,-297.34C2492.96,-295.29 2550.26,-291.72 2599.36,-289 2693.67,-283.77 2804.81,-278.38 2861.02,-275.71"/>
<polygon fill="black" stroke="black" points="2861.36,-279.2 2871.18,-275.23 2861.03,-272.21 2861.36,-279.2"/>
<text text-anchor="middle" x="2666.86" y="-307.8" font-family="Times New Roman,serif" font-size="14.00">Cephalic region without</text>
<text text-anchor="middle" x="2666.86" y="-292.8" font-family="Times New Roman,serif" font-size="14.00">submedial lobes</text>
</g>
<!-- 012&#45;&gt;Amphisbaenema Orton Williams,
1982
 -->
<g id="edge32" class="edge">
<title>012&#45;&gt;Amphisbaenema Orton Williams,
1982
</title>
<path fill="none" stroke="black" d="M2925.67,-273.75C2956.2,-274.55 3007.24,-279.43 3044.66,-301 3055.31,-307.14 3051.69,-316.45 3062.66,-322 3134.23,-358.24 3223.67,-365.92 3296.82,-364.21"/>
<polygon fill="black" stroke="black" points="3297.14,-367.7 3307.03,-363.91 3296.93,-360.7 3297.14,-367.7"/>
<text text-anchor="middle" x="3157.66" y="-396.8" font-family="Times New Roman,serif" font-size="14.00">Head with one</text>
<text text-anchor="middle" x="3157.66" y="-381.8" font-family="Times New Roman,serif" font-size="14.00">dome&#45;shaped annule; annules</text>
<text text-anchor="middle" x="3157.66" y="-366.8" font-family="Times New Roman,serif" font-size="14.00">with encrustations</text>
</g>
<!-- 012&#45;&gt;Criconema Hofmänner &amp;
Menzel, 1914
 -->
<g id="edge33" class="edge">
<title>012&#45;&gt;Criconema Hofmänner &amp;
Menzel, 1914
</title>
<path fill="none" stroke="black" d="M2925.64,-273.8C2991.98,-273.31 3170.65,-271.97 3297.31,-271.02"/>
<polygon fill="black" stroke="black" points="3297.51,-274.52 3307.48,-270.95 3297.45,-267.52 3297.51,-274.52"/>
<text text-anchor="middle" x="3157.66" y="-306.8" font-family="Times New Roman,serif" font-size="14.00">Head with two</text>
<text text-anchor="middle" x="3157.66" y="-291.8" font-family="Times New Roman,serif" font-size="14.00">ring&#45;like annules; annules</text>
<text text-anchor="middle" x="3157.66" y="-276.8" font-family="Times New Roman,serif" font-size="14.00">without encrustations</text>
</g>
<!-- 014&#45;&gt;Discocriconemella De Grisse
&amp; Loof, 1965
 -->
<g id="edge36" class="edge">
<title>014&#45;&gt;Discocriconemella De Grisse
&amp; Loof, 1965
</title>
<path fill="none" stroke="black" d="M2460.17,-166.29C2492.57,-170.36 2550.02,-177.34 2599.36,-182 2652.16,-186.99 2710.31,-191.5 2761.13,-195.12"/>
<polygon fill="black" stroke="black" points="2760.97,-198.62 2771.2,-195.83 2761.47,-191.64 2760.97,-198.62"/>
<text text-anchor="middle" x="2666.86" y="-226.8" font-family="Times New Roman,serif" font-size="14.00">Anterior cephalic annule</text>
<text text-anchor="middle" x="2666.86" y="-211.8" font-family="Times New Roman,serif" font-size="14.00">disc&#45;like, offset by</text>
<text text-anchor="middle" x="2666.86" y="-196.8" font-family="Times New Roman,serif" font-size="14.00">a collar</text>
</g>
<!-- 015 -->
<g id="node41" class="node">
<title>015</title>
<ellipse fill="none" stroke="black" cx="2898.51" cy="-136" rx="27" ry="18"/>
<text text-anchor="middle" x="2898.51" y="-132.3" font-family="Times New Roman,serif" font-size="14.00">015</text>
</g>
<!-- 014&#45;&gt;015 -->
<g id="edge37" class="edge">
<title>014&#45;&gt;015</title>
<path fill="none" stroke="black" d="M2459.5,-157.83C2491.67,-151.47 2549.39,-141 2599.36,-137 2693.64,-129.45 2805.23,-132.17 2861.38,-134.34"/>
<polygon fill="black" stroke="black" points="2861.4,-137.85 2871.53,-134.75 2861.68,-130.85 2861.4,-137.85"/>
<text text-anchor="middle" x="2666.86" y="-170.8" font-family="Times New Roman,serif" font-size="14.00">Anterior cephalic annule</text>
<text text-anchor="middle" x="2666.86" y="-155.8" font-family="Times New Roman,serif" font-size="14.00">not disc&#45;like, not</text>
<text text-anchor="middle" x="2666.86" y="-140.8" font-family="Times New Roman,serif" font-size="14.00">offset</text>
</g>
<!-- 015&#45;&gt;Xenocriconemella De Grisse
&amp; Loof, 1965
 -->
<g id="edge38" class="edge">
<title>015&#45;&gt;Xenocriconemella De Grisse
&amp; Loof, 1965
</title>
<path fill="none" stroke="black" d="M2924.53,-141.39C2956.43,-148.04 3013.38,-159.18 3062.66,-165 3137.5,-173.84 3221.27,-179.19 3290.26,-182.4"/>
<polygon fill="black" stroke="black" points="3290.18,-185.9 3300.33,-182.86 3290.49,-178.91 3290.18,-185.9"/>
<text text-anchor="middle" x="3157.66" y="-199.8" font-family="Times New Roman,serif" font-size="14.00">Stylet exceedingly long,</text>
<text text-anchor="middle" x="3157.66" y="-184.8" font-family="Times New Roman,serif" font-size="14.00">flexible</text>
</g>
<!-- 016 -->
<g id="node42" class="node">
<title>016</title>
<ellipse fill="none" stroke="black" cx="3434.78" cy="-120" rx="27" ry="18"/>
<text text-anchor="middle" x="3434.78" y="-116.3" font-family="Times New Roman,serif" font-size="14.00">016</text>
</g>
<!-- 015&#45;&gt;016 -->
<g id="edge39" class="edge">
<title>015&#45;&gt;016</title>
<path fill="none" stroke="black" d="M2925.64,-135.22C3013.25,-132.59 3296.75,-124.1 3397.68,-121.08"/>
<polygon fill="black" stroke="black" points="3397.81,-124.58 3407.7,-120.78 3397.6,-117.58 3397.81,-124.58"/>
<text text-anchor="middle" x="3157.66" y="-149.8" font-family="Times New Roman,serif" font-size="14.00">Stylet not exceedingly</text>
<text text-anchor="middle" x="3157.66" y="-134.8" font-family="Times New Roman,serif" font-size="14.00">long, not flexible</text>
</g>
<!-- 016&#45;&gt;Nothocriconemoides Loof &amp;
De Grisse, 1971
 -->
<g id="edge40" class="edge">
<title>016&#45;&gt;Nothocriconemoides Loof &amp;
De Grisse, 1971
</title>
<path fill="none" stroke="black" d="M3461.87,-121.75C3497.06,-124.11 3561.7,-128.42 3616.89,-132 3685.59,-136.46 3761.96,-141.33 3825.44,-145.35"/>
<polygon fill="black" stroke="black" points="3825.32,-148.84 3835.52,-145.98 3825.76,-141.86 3825.32,-148.84"/>
<text text-anchor="middle" x="3707.89" y="-162.8" font-family="Times New Roman,serif" font-size="14.00">Anterior lip of</text>
<text text-anchor="middle" x="3707.89" y="-147.8" font-family="Times New Roman,serif" font-size="14.00">vulva overhanging aperture</text>
</g>
<!-- 016&#45;&gt;Criconemoides Taylor, 1936
 -->
<g id="edge41" class="edge">
<title>016&#45;&gt;Criconemoides Taylor, 1936
</title>
<path fill="none" stroke="black" d="M3460.14,-113.39C3494.7,-104.39 3560.06,-88.75 3616.89,-83 3697.37,-74.86 3718.01,-82.26 3798.89,-83 3809.14,-83.09 3819.75,-83.22 3830.41,-83.37"/>
<polygon fill="black" stroke="black" points="3830.59,-86.87 3840.64,-83.52 3830.7,-79.87 3830.59,-86.87"/>
<text text-anchor="middle" x="3707.89" y="-116.8" font-family="Times New Roman,serif" font-size="14.00">Anterior lip of</text>
<text text-anchor="middle" x="3707.89" y="-101.8" font-family="Times New Roman,serif" font-size="14.00">vulva not overhanging</text>
<text text-anchor="middle" x="3707.89" y="-86.8" font-family="Times New Roman,serif" font-size="14.00">aperture</text>
</g>
</g>
</svg>
